<svg xmlns="http://www.w3.org/2000/svg" width="1200" height="560" viewBox="0 0 1200 560">
<rect width="100%" height="100%" fill="#050807"/>
<defs><filter id="glow"><feGaussianBlur stdDeviation="2.6" result="b"/><feMerge><feMergeNode in="b"/><feMergeNode in="SourceGraphic"/></feMerge></filter></defs>
<text x="36" y="34" fill="#e8efe8" font-family="Segoe UI, sans-serif" font-size="24" font-weight="800">Biometric Waveform Samples</text>
<line x1="88.0" y1="52" x2="88.0" y2="512" stroke="#1d2a25" stroke-width="1"/>
<line x1="195.6" y1="52" x2="195.6" y2="512" stroke="#1d2a25" stroke-width="1"/>
<line x1="303.2" y1="52" x2="303.2" y2="512" stroke="#1d2a25" stroke-width="1"/>
<line x1="410.8" y1="52" x2="410.8" y2="512" stroke="#1d2a25" stroke-width="1"/>
<line x1="518.4" y1="52" x2="518.4" y2="512" stroke="#1d2a25" stroke-width="1"/>
<line x1="626.0" y1="52" x2="626.0" y2="512" stroke="#1d2a25" stroke-width="1"/>
<line x1="733.6" y1="52" x2="733.6" y2="512" stroke="#1d2a25" stroke-width="1"/>
<line x1="841.2" y1="52" x2="841.2" y2="512" stroke="#1d2a25" stroke-width="1"/>
<line x1="948.8" y1="52" x2="948.8" y2="512" stroke="#1d2a25" stroke-width="1"/>
<line x1="1056.4" y1="52" x2="1056.4" y2="512" stroke="#1d2a25" stroke-width="1"/>
<line x1="1164.0" y1="52" x2="1164.0" y2="512" stroke="#1d2a25" stroke-width="1"/>
<line x1="88" y1="101.7" x2="1164" y2="101.7" stroke="#1d2a25" stroke-width="1"/>
<text x="24" y="106.7" fill="#85918b" font-family="Segoe UI, sans-serif" font-size="14">リラックス</text>
<polyline points="90.3,95.8 94.4,95.8 98.5,95.8 102.6,92.8 106.7,92.8 112.9,83.9 114.9,78.0 119.0,75.0 123.1,75.0 127.2,80.9 131.3,80.9 135.4,86.9 139.5,80.9 143.6,80.9 147.7,83.9 151.8,89.8 155.9,89.8 160.0,101.7 164.1,101.7 168.2,110.6 172.3,110.6 177.5,116.5 181.6,113.5 185.7,113.5 189.8,119.5 193.9,119.5 198.0,122.4 202.1,122.4 206.2,128.4 210.3,128.4 214.4,125.4 218.5,122.4 222.6,122.4 226.7,113.5 230.8,113.5 234.9,113.5 239.0,119.5 243.1,119.5 247.2,119.5 251.3,119.5 255.4,113.5 259.5,107.6 263.6,101.7 267.7,101.7 271.8,104.6 276.9,104.6 281.0,110.6 285.1,107.6 289.3,107.6 293.4,104.6 297.5,104.6 301.6,98.7 305.7,95.8 309.8,92.8 313.9,92.8 318.0,92.8 322.1,92.8 326.2,92.8 330.3,89.8 334.4,89.8 338.5,92.8 342.6,92.8 346.7,95.8 350.8,95.8 354.9,92.8 359.0,92.8 363.1,98.7 368.2,98.7 372.3,107.6 376.4,110.6 380.5,110.6 384.6,110.6 388.7,110.6 392.8,104.6 396.9,98.7 401.0,98.7 405.1,107.6 409.2,107.6 413.3,116.5 417.4,116.5 421.5,116.5 425.6,113.5 429.7,113.5 433.8,104.6 438.0,95.8 442.0,95.8 446.2,98.7 450.3,104.6 454.4,104.6 459.5,104.6 463.6,104.6 467.7,104.6 471.8,98.7 475.9,98.7 480.0,98.7 484.1,104.6 488.2,104.6 492.3,110.6 496.4,110.6 500.5,116.5 504.6,116.5 508.7,116.5 512.8,116.5 516.9,116.5 521.0,119.5 527.2,119.5 529.2,125.4 533.3,125.4 537.4,128.4 541.5,128.4 545.6,125.4 549.7,122.4 554.9,122.4 559.0,122.4 563.1,122.4 567.2,122.4 571.3,122.4 575.4,122.4 579.5,119.5 583.6,119.5 587.7,119.5 591.8,119.5 595.9,116.5 600.0,116.5 604.1,116.5 608.2,116.5 612.3,116.5 616.4,113.5 620.5,110.6 624.6,110.6 628.7,107.6 632.8,104.6 636.9,104.6 641.0,101.7 645.1,98.7 650.2,98.7 654.3,98.7 658.4,98.7 662.5,98.7 666.6,95.8 670.7,92.8 674.8,92.8 678.9,86.9 683.0,83.9 687.1,83.9 691.2,80.9 695.3,83.9 699.4,83.9 703.5,83.9 707.7,83.9 711.8,86.9 715.9,89.8 720.0,89.8 724.1,89.8 728.2,89.8 734.3,86.9 736.4,78.0 741.5,78.0 745.6,75.0 749.7,75.0 753.8,75.0 757.9,80.9 762.0,80.9 766.1,83.9 770.2,83.9 774.3,89.8 778.4,101.7 782.5,101.7 786.6,110.6 790.7,110.6 794.8,110.6 798.9,107.6 803.0,107.6 807.1,107.6 811.2,110.6 815.3,110.6 819.4,110.6 823.5,110.6 827.6,110.6 831.7,107.6 836.9,107.6 841.0,107.6 845.1,107.6 849.2,107.6 853.3,101.7 857.4,98.7 861.5,98.7 865.6,95.8 869.7,92.8 873.8,92.8 877.9,89.8 882.0,86.9 886.1,86.9 890.2,86.9 894.3,89.8 898.4,89.8 902.5,92.8 906.6,92.8 910.7,92.8 914.8,92.8 918.9,92.8 923.0,92.8 928.1,92.8 932.2,92.8 936.3,95.8 940.4,95.8 944.5,95.8 948.6,95.8 952.7,92.8 956.8,92.8 961.0,92.8 965.1,89.8 969.2,89.8 973.3,86.9 977.4,86.9 981.5,86.9 985.6,86.9 989.7,83.9 993.8,83.9 997.9,80.9 1002.0,80.9 1006.1,80.9 1010.2,80.9 1014.3,78.0 1019.4,78.0 1023.5,78.0 1027.6,78.0 1031.7,75.0 1035.8,75.0 1039.9,75.0 1044.0,78.0 1048.1,78.0 1052.2,83.9 1056.3,86.9 1060.4,86.9 1064.5,92.8 1068.6,92.8 1072.7,98.7 1076.8,104.6 1080.9,104.6 1085.0,107.6 1089.1,107.6 1093.2,113.5 1097.3,113.5 1101.4,116.5 1105.5,119.5 1109.6,119.5 1113.7,119.5 1118.9,119.5 1123.0,122.4 1127.1,122.4 1131.2,122.4 1135.3,122.4 1139.4,122.4 1145.5,122.4 1147.6,122.4 1151.7,119.5 1155.8,116.5 1159.9,116.5 1164.0,119.5" fill="none" stroke="#86f0a8" stroke-width="2.2" filter="url(#glow)"/>
<line x1="88" y1="193.7" x2="1164" y2="193.7" stroke="#1d2a25" stroke-width="1"/>
<text x="24" y="198.7" fill="#85918b" font-family="Segoe UI, sans-serif" font-size="14">バイオハザード</text>
<polyline points="91.0,210.2 95.1,210.2 99.2,207.7 103.3,205.1 107.4,205.1 111.5,200.0 115.6,200.0 119.7,200.0 123.8,197.5 127.9,192.4 133.0,192.4 137.1,192.4 141.2,192.4 145.3,192.4 149.4,192.4 153.5,192.4 157.6,197.5 161.7,197.5 165.8,197.5 169.8,197.5 173.9,200.0 178.0,200.0 182.1,202.6 186.2,202.6 190.3,205.1 194.4,205.1 198.5,205.1 202.6,207.7 206.7,207.7 210.8,210.2 214.9,210.2 219.0,212.7 223.1,215.3 228.2,215.3 232.3,215.3 236.4,215.3 240.5,215.3 244.6,215.3 249.7,215.3 252.8,215.3 256.9,215.3 261.0,215.3 265.1,215.3 269.2,215.3 273.3,212.7 279.4,212.7 281.4,212.7 285.5,210.2 289.6,210.2 293.7,207.7 297.8,202.6 301.9,197.5 306.0,197.5 310.1,189.9 314.2,179.7 319.3,174.6 323.4,174.6 327.5,169.5 331.6,167.0 335.7,167.0 339.8,167.0 343.9,172.1 348.0,172.1 352.1,177.2 356.2,182.2 360.3,182.2 364.4,187.3 368.5,189.9 372.6,189.9 376.7,192.4 380.8,192.4 384.9,192.4 388.9,192.4 393.0,189.9 397.1,187.3 401.2,187.3 405.3,187.3 409.4,187.3 414.5,187.3 418.6,187.3 422.7,184.8 426.8,184.8 430.9,184.8 435.0,187.3 439.1,187.3 443.2,189.9 447.3,189.9 451.4,189.9 455.5,189.9 459.6,189.9 463.7,189.9 467.8,189.9 471.9,189.9 476.0,192.4 480.1,195.0 486.2,195.0 488.3,197.5 492.4,197.5 496.5,197.5 500.6,192.4 504.6,192.4 509.8,189.9 513.9,189.9 518.0,187.3 522.0,187.3 526.1,187.3 530.2,187.3 534.3,187.3 538.4,189.9 542.5,192.4 546.6,192.4 550.7,192.4 554.8,195.0 558.9,195.0 563.0,192.4 567.1,195.0 571.2,195.0 575.3,195.0 579.4,192.4 583.5,192.4 587.6,192.4 591.7,192.4 595.8,192.4 600.9,195.0 605.0,195.0 609.1,197.5 613.2,200.0 617.3,200.0 621.4,200.0 625.5,202.6 629.6,202.6 633.7,205.1 637.7,205.1 641.8,205.1 645.9,207.7 650.0,207.7 654.1,207.7 658.2,207.7 662.3,207.7 666.4,207.7 670.5,207.7 674.6,207.7 678.7,207.7 682.8,210.2 686.9,207.7 693.0,207.7 696.1,207.7 700.2,207.7 704.3,207.7 708.4,207.7 712.5,207.7 716.6,207.7 720.7,210.2 724.8,210.2 728.9,207.7 733.0,207.7 737.1,210.2 741.2,210.2 745.2,210.2 749.3,210.2 753.4,210.2 757.5,207.7 761.6,207.7 765.7,207.7 769.8,207.7 773.9,207.7 778.0,207.7 782.1,205.1 787.2,205.1 791.3,205.1 795.4,202.6 799.5,202.6 803.6,205.1 807.7,205.1 811.8,207.7 815.9,207.7 820.0,207.7 824.1,207.7 828.2,207.7 832.3,207.7 836.4,207.7 840.5,207.7 845.6,210.2 848.7,210.2 852.8,212.7 856.8,212.7 860.9,212.7 865.0,212.7 869.1,212.7 873.2,210.2 877.3,210.2 882.4,210.2 886.5,207.7 890.6,207.7 894.7,207.7 898.8,207.7 902.9,207.7 907.0,207.7 911.1,205.1 915.2,205.1 919.3,205.1 923.4,205.1 927.5,205.1 931.6,207.7 935.7,207.7 939.8,207.7 943.9,207.7 948.0,207.7 952.1,210.2 956.2,210.2 960.3,210.2 964.4,210.2 968.4,210.2 973.6,210.2 977.7,210.2 981.8,212.7 985.9,212.7 989.9,215.3 994.0,217.8 998.1,217.8 1002.2,217.8 1006.3,217.8 1010.4,215.3 1014.5,215.3 1018.6,217.8 1022.7,217.8 1026.8,217.8 1030.9,217.8 1035.0,217.8 1039.1,217.8 1043.2,215.3 1047.3,215.3 1051.4,215.3 1055.5,215.3 1059.6,217.8 1063.7,217.8 1068.8,217.8 1072.9,217.8 1077.0,217.8 1081.1,217.8 1085.2,217.8 1089.3,217.8 1093.4,217.8 1097.5,220.4 1103.6,220.4 1105.6,220.4 1109.7,220.4 1113.8,220.4 1117.9,220.4 1122.0,220.4 1126.1,220.4 1130.2,220.4 1134.3,220.4 1138.4,220.4 1142.5,220.4 1146.6,220.4 1150.7,220.4 1154.8,220.4 1158.9,220.4 1164.0,220.4" fill="none" stroke="#e3b45a" stroke-width="2.2" filter="url(#glow)"/>
<line x1="88" y1="285.7" x2="1164" y2="285.7" stroke="#1d2a25" stroke-width="1"/>
<text x="24" y="290.7" fill="#85918b" font-family="Segoe UI, sans-serif" font-size="14">コンジアム</text>
<polyline points="88.2,286.7 92.5,269.7 96.8,291.0 101.1,282.5 105.4,276.1 109.7,299.6 114.0,280.3 118.3,269.7 122.6,278.2 126.9,269.7 131.2,278.2 135.5,267.5 139.8,278.2 144.1,280.3 148.4,280.3 152.7,278.2 157.0,273.9 161.3,273.9 165.6,284.6 169.9,265.4 174.2,284.6 178.5,276.1 182.8,284.6 187.1,288.9 191.4,284.6 195.7,282.5 200.1,286.7 204.4,284.6 208.7,286.7 213.0,297.4 217.3,288.9 221.6,282.5 225.9,293.2 230.2,282.5 234.5,284.6 238.8,286.7 243.1,265.4 247.4,276.1 251.7,278.2 256.0,284.6 260.3,269.7 264.6,276.1 268.9,271.8 273.2,278.2 277.5,273.9 281.8,288.9 286.1,280.3 290.4,278.2 294.7,293.2 299.0,271.8 303.3,269.7 307.6,303.8 311.9,278.2 316.2,299.6 320.5,278.2 324.8,278.2 329.1,273.9 333.4,282.5 337.8,271.8 342.1,288.9 346.4,291.0 350.7,282.5 355.0,267.5 359.3,276.1 363.6,286.7 367.9,286.7 372.2,288.9 376.5,284.6 380.8,284.6 385.1,278.2 389.4,286.7 393.8,282.5 398.0,293.2 402.3,299.6 406.6,297.4 410.9,284.6 415.2,303.8 419.5,291.0 423.8,295.3 428.2,297.4 432.5,282.5 436.8,282.5 441.0,288.9 445.3,278.2 449.6,284.6 453.9,278.2 458.2,291.0 462.5,284.6 466.8,288.9 471.1,291.0 475.5,286.7 479.8,297.4 484.1,269.7 488.4,295.3 492.7,295.3 497.0,273.9 501.3,280.3 505.6,293.2 509.9,282.5 514.2,280.3 518.5,284.6 522.8,291.0 527.1,293.2 531.4,288.9 535.7,293.2 540.0,291.0 544.3,293.2 548.6,288.9 552.9,280.3 557.2,288.9 561.5,278.2 565.9,288.9 570.2,269.7 574.5,288.9 578.8,284.6 583.1,282.5 587.4,291.0 591.7,282.5 596.0,286.7 600.3,286.7 604.6,288.9 608.8,273.9 613.2,286.7 617.5,284.6 621.8,291.0 626.1,288.9 630.4,280.3 634.7,280.3 639.0,291.0 643.3,293.2 647.6,276.1 651.9,276.1 656.2,297.4 660.5,284.6 664.8,284.6 669.1,273.9 673.4,276.1 677.7,299.6 682.0,288.9 686.3,297.4 690.6,286.7 694.9,303.8 699.2,293.2 703.6,284.6 707.9,278.2 712.2,303.8 716.5,293.2 720.8,284.6 725.1,286.7 729.4,282.5 733.7,278.2 738.0,295.3 742.3,286.7 746.6,273.9 750.9,306.0 755.2,295.3 759.5,295.3 763.8,293.2 768.1,295.3 772.4,303.8 776.7,291.0 781.0,306.0 785.3,284.6 789.6,291.0 793.9,286.7 798.2,306.0 802.5,299.6 806.8,286.7 811.1,282.5 815.4,286.7 819.7,286.7 824.0,297.4 828.4,276.1 832.6,295.3 836.9,261.1 841.3,297.4 845.6,295.3 849.9,295.3 854.2,280.3 858.5,276.1 862.8,282.5 867.1,284.6 871.4,286.7 875.7,280.3 880.0,293.2 884.3,295.3 888.6,291.0 892.9,303.8 897.2,291.0 901.5,288.9 905.8,286.7 910.2,306.0 914.4,282.5 918.7,284.6 923.0,271.8 927.3,280.3 931.6,278.2 935.9,282.5 940.2,280.3 944.5,271.8 948.8,293.2 953.1,259.0 957.4,291.0 961.7,286.7 966.0,278.2 970.3,278.2 974.6,278.2 978.9,293.2 983.3,273.9 987.6,284.6 991.9,284.6 996.2,278.2 1000.5,299.6 1004.8,278.2 1009.1,295.3 1013.4,295.3 1017.7,291.0 1022.0,286.7 1026.3,273.9 1030.6,301.7 1034.9,301.7 1039.2,276.1 1043.5,273.9 1047.8,308.1 1052.1,295.3 1056.4,303.8 1060.7,297.4 1065.1,299.6 1069.3,273.9 1073.7,299.6 1078.0,295.3 1082.3,299.6 1086.6,284.6 1090.8,299.6 1095.1,293.2 1099.4,295.3 1103.8,299.6 1108.0,301.7 1112.3,295.3 1116.6,288.9 1121.0,299.6 1125.3,286.7 1129.6,280.3 1133.9,301.7 1138.2,299.6 1142.5,293.2 1146.8,297.4 1151.1,303.8 1155.4,297.4 1159.7,312.4 1164.0,308.1" fill="none" stroke="#7aa9d6" stroke-width="2.2" filter="url(#glow)"/>
<circle cx="118.3" cy="285.7" r="5" fill="#ef5148" opacity="0.85"/>
<circle cx="122.6" cy="285.7" r="5" fill="#ef5148" opacity="0.85"/>
<circle cx="126.9" cy="285.7" r="5" fill="#ef5148" opacity="0.85"/>
<circle cx="131.2" cy="285.7" r="5" fill="#ef5148" opacity="0.85"/>
<circle cx="135.5" cy="285.7" r="5" fill="#ef5148" opacity="0.85"/>
<circle cx="139.8" cy="285.7" r="5" fill="#ef5148" opacity="0.85"/>
<circle cx="144.1" cy="285.7" r="5" fill="#ef5148" opacity="0.85"/>
<circle cx="148.4" cy="285.7" r="5" fill="#ef5148" opacity="0.85"/>
<circle cx="152.7" cy="285.7" r="5" fill="#ef5148" opacity="0.85"/>
<circle cx="157.0" cy="285.7" r="5" fill="#ef5148" opacity="0.85"/>
<circle cx="161.3" cy="285.7" r="5" fill="#ef5148" opacity="0.85"/>
<circle cx="165.6" cy="285.7" r="5" fill="#ef5148" opacity="0.85"/>
<circle cx="169.9" cy="285.7" r="5" fill="#ef5148" opacity="0.85"/>
<circle cx="174.2" cy="285.7" r="5" fill="#ef5148" opacity="0.85"/>
<circle cx="178.5" cy="285.7" r="5" fill="#ef5148" opacity="0.85"/>
<circle cx="182.8" cy="285.7" r="5" fill="#ef5148" opacity="0.85"/>
<circle cx="187.1" cy="285.7" r="5" fill="#ef5148" opacity="0.85"/>
<circle cx="191.4" cy="285.7" r="5" fill="#ef5148" opacity="0.85"/>
<circle cx="195.7" cy="285.7" r="5" fill="#ef5148" opacity="0.85"/>
<circle cx="200.1" cy="285.7" r="5" fill="#ef5148" opacity="0.85"/>
<circle cx="204.4" cy="285.7" r="5" fill="#ef5148" opacity="0.85"/>
<circle cx="208.7" cy="285.7" r="3" fill="#e3b45a" opacity="0.75"/>
<circle cx="213.0" cy="285.7" r="3" fill="#e3b45a" opacity="0.75"/>
<circle cx="217.3" cy="285.7" r="3" fill="#e3b45a" opacity="0.75"/>
<circle cx="221.6" cy="285.7" r="3" fill="#e3b45a" opacity="0.75"/>
<circle cx="225.9" cy="285.7" r="3" fill="#e3b45a" opacity="0.75"/>
<circle cx="256.0" cy="285.7" r="5" fill="#ef5148" opacity="0.85"/>
<circle cx="260.3" cy="285.7" r="5" fill="#ef5148" opacity="0.85"/>
<circle cx="264.6" cy="285.7" r="5" fill="#ef5148" opacity="0.85"/>
<circle cx="268.9" cy="285.7" r="5" fill="#ef5148" opacity="0.85"/>
<circle cx="273.2" cy="285.7" r="5" fill="#ef5148" opacity="0.85"/>
<circle cx="277.5" cy="285.7" r="5" fill="#ef5148" opacity="0.85"/>
<circle cx="281.8" cy="285.7" r="5" fill="#ef5148" opacity="0.85"/>
<circle cx="286.1" cy="285.7" r="5" fill="#ef5148" opacity="0.85"/>
<circle cx="290.4" cy="285.7" r="5" fill="#ef5148" opacity="0.85"/>
<circle cx="294.7" cy="285.7" r="5" fill="#ef5148" opacity="0.85"/>
<circle cx="299.0" cy="285.7" r="5" fill="#ef5148" opacity="0.85"/>
<circle cx="303.3" cy="285.7" r="5" fill="#ef5148" opacity="0.85"/>
<circle cx="307.6" cy="285.7" r="3" fill="#e3b45a" opacity="0.75"/>
<circle cx="311.9" cy="285.7" r="5" fill="#ef5148" opacity="0.85"/>
<circle cx="316.2" cy="285.7" r="3" fill="#e3b45a" opacity="0.75"/>
<circle cx="320.5" cy="285.7" r="3" fill="#e3b45a" opacity="0.75"/>
<circle cx="324.8" cy="285.7" r="3" fill="#e3b45a" opacity="0.75"/>
<circle cx="329.1" cy="285.7" r="5" fill="#ef5148" opacity="0.85"/>
<circle cx="333.4" cy="285.7" r="5" fill="#ef5148" opacity="0.85"/>
<circle cx="337.8" cy="285.7" r="5" fill="#ef5148" opacity="0.85"/>
<circle cx="342.1" cy="285.7" r="5" fill="#ef5148" opacity="0.85"/>
<circle cx="346.4" cy="285.7" r="5" fill="#ef5148" opacity="0.85"/>
<circle cx="350.7" cy="285.7" r="5" fill="#ef5148" opacity="0.85"/>
<circle cx="355.0" cy="285.7" r="3" fill="#e3b45a" opacity="0.75"/>
<circle cx="359.3" cy="285.7" r="3" fill="#e3b45a" opacity="0.75"/>
<circle cx="363.6" cy="285.7" r="5" fill="#ef5148" opacity="0.85"/>
<circle cx="367.9" cy="285.7" r="5" fill="#ef5148" opacity="0.85"/>
<circle cx="372.2" cy="285.7" r="5" fill="#ef5148" opacity="0.85"/>
<circle cx="376.5" cy="285.7" r="5" fill="#ef5148" opacity="0.85"/>
<circle cx="380.8" cy="285.7" r="5" fill="#ef5148" opacity="0.85"/>
<circle cx="385.1" cy="285.7" r="5" fill="#ef5148" opacity="0.85"/>
<circle cx="389.4" cy="285.7" r="5" fill="#ef5148" opacity="0.85"/>
<circle cx="393.8" cy="285.7" r="5" fill="#ef5148" opacity="0.85"/>
<circle cx="398.0" cy="285.7" r="5" fill="#ef5148" opacity="0.85"/>
<circle cx="402.3" cy="285.7" r="5" fill="#ef5148" opacity="0.85"/>
<circle cx="406.6" cy="285.7" r="5" fill="#ef5148" opacity="0.85"/>
<circle cx="410.9" cy="285.7" r="5" fill="#ef5148" opacity="0.85"/>
<circle cx="415.2" cy="285.7" r="3" fill="#e3b45a" opacity="0.75"/>
<circle cx="419.5" cy="285.7" r="3" fill="#e3b45a" opacity="0.75"/>
<circle cx="423.8" cy="285.7" r="3" fill="#e3b45a" opacity="0.75"/>
<circle cx="428.2" cy="285.7" r="3" fill="#e3b45a" opacity="0.75"/>
<circle cx="432.5" cy="285.7" r="3" fill="#e3b45a" opacity="0.75"/>
<circle cx="436.8" cy="285.7" r="5" fill="#ef5148" opacity="0.85"/>
<circle cx="441.0" cy="285.7" r="5" fill="#ef5148" opacity="0.85"/>
<circle cx="445.3" cy="285.7" r="5" fill="#ef5148" opacity="0.85"/>
<circle cx="449.6" cy="285.7" r="5" fill="#ef5148" opacity="0.85"/>
<circle cx="453.9" cy="285.7" r="5" fill="#ef5148" opacity="0.85"/>
<circle cx="458.2" cy="285.7" r="5" fill="#ef5148" opacity="0.85"/>
<circle cx="462.5" cy="285.7" r="5" fill="#ef5148" opacity="0.85"/>
<circle cx="466.8" cy="285.7" r="5" fill="#ef5148" opacity="0.85"/>
<circle cx="471.1" cy="285.7" r="3" fill="#e3b45a" opacity="0.75"/>
<circle cx="475.5" cy="285.7" r="3" fill="#e3b45a" opacity="0.75"/>
<circle cx="479.8" cy="285.7" r="3" fill="#e3b45a" opacity="0.75"/>
<circle cx="484.1" cy="285.7" r="3" fill="#e3b45a" opacity="0.75"/>
<circle cx="488.4" cy="285.7" r="3" fill="#e3b45a" opacity="0.75"/>
<circle cx="492.7" cy="285.7" r="3" fill="#e3b45a" opacity="0.75"/>
<circle cx="497.0" cy="285.7" r="3" fill="#e3b45a" opacity="0.75"/>
<circle cx="501.3" cy="285.7" r="3" fill="#e3b45a" opacity="0.75"/>
<circle cx="505.6" cy="285.7" r="3" fill="#e3b45a" opacity="0.75"/>
<circle cx="509.9" cy="285.7" r="3" fill="#e3b45a" opacity="0.75"/>
<circle cx="514.2" cy="285.7" r="3" fill="#e3b45a" opacity="0.75"/>
<circle cx="518.5" cy="285.7" r="5" fill="#ef5148" opacity="0.85"/>
<circle cx="522.8" cy="285.7" r="5" fill="#ef5148" opacity="0.85"/>
<circle cx="527.1" cy="285.7" r="5" fill="#ef5148" opacity="0.85"/>
<circle cx="531.4" cy="285.7" r="5" fill="#ef5148" opacity="0.85"/>
<circle cx="535.7" cy="285.7" r="3" fill="#e3b45a" opacity="0.75"/>
<circle cx="540.0" cy="285.7" r="3" fill="#e3b45a" opacity="0.75"/>
<circle cx="544.3" cy="285.7" r="3" fill="#e3b45a" opacity="0.75"/>
<circle cx="548.6" cy="285.7" r="3" fill="#e3b45a" opacity="0.75"/>
<circle cx="552.9" cy="285.7" r="3" fill="#e3b45a" opacity="0.75"/>
<circle cx="574.5" cy="285.7" r="3" fill="#e3b45a" opacity="0.75"/>
<circle cx="578.8" cy="285.7" r="5" fill="#ef5148" opacity="0.85"/>
<circle cx="583.1" cy="285.7" r="5" fill="#ef5148" opacity="0.85"/>
<circle cx="587.4" cy="285.7" r="5" fill="#ef5148" opacity="0.85"/>
<circle cx="591.7" cy="285.7" r="5" fill="#ef5148" opacity="0.85"/>
<circle cx="596.0" cy="285.7" r="5" fill="#ef5148" opacity="0.85"/>
<circle cx="600.3" cy="285.7" r="5" fill="#ef5148" opacity="0.85"/>
<circle cx="604.6" cy="285.7" r="5" fill="#ef5148" opacity="0.85"/>
<circle cx="608.8" cy="285.7" r="5" fill="#ef5148" opacity="0.85"/>
<circle cx="613.2" cy="285.7" r="5" fill="#ef5148" opacity="0.85"/>
<circle cx="617.5" cy="285.7" r="5" fill="#ef5148" opacity="0.85"/>
<circle cx="621.8" cy="285.7" r="5" fill="#ef5148" opacity="0.85"/>
<circle cx="626.1" cy="285.7" r="5" fill="#ef5148" opacity="0.85"/>
<circle cx="630.4" cy="285.7" r="5" fill="#ef5148" opacity="0.85"/>
<circle cx="634.7" cy="285.7" r="5" fill="#ef5148" opacity="0.85"/>
<circle cx="639.0" cy="285.7" r="3" fill="#e3b45a" opacity="0.75"/>
<circle cx="643.3" cy="285.7" r="3" fill="#e3b45a" opacity="0.75"/>
<circle cx="647.6" cy="285.7" r="5" fill="#ef5148" opacity="0.85"/>
<circle cx="651.9" cy="285.7" r="5" fill="#ef5148" opacity="0.85"/>
<circle cx="656.2" cy="285.7" r="3" fill="#e3b45a" opacity="0.75"/>
<circle cx="660.5" cy="285.7" r="3" fill="#e3b45a" opacity="0.75"/>
<circle cx="664.8" cy="285.7" r="3" fill="#e3b45a" opacity="0.75"/>
<circle cx="703.6" cy="285.7" r="3" fill="#e3b45a" opacity="0.75"/>
<circle cx="707.9" cy="285.7" r="3" fill="#e3b45a" opacity="0.75"/>
<circle cx="720.8" cy="285.7" r="3" fill="#e3b45a" opacity="0.75"/>
<circle cx="725.1" cy="285.7" r="3" fill="#e3b45a" opacity="0.75"/>
<circle cx="729.4" cy="285.7" r="3" fill="#e3b45a" opacity="0.75"/>
<circle cx="733.7" cy="285.7" r="3" fill="#e3b45a" opacity="0.75"/>
<circle cx="738.0" cy="285.7" r="3" fill="#e3b45a" opacity="0.75"/>
<circle cx="742.3" cy="285.7" r="3" fill="#e3b45a" opacity="0.75"/>
<circle cx="746.6" cy="285.7" r="3" fill="#e3b45a" opacity="0.75"/>
<circle cx="776.7" cy="285.7" r="3" fill="#e3b45a" opacity="0.75"/>
<circle cx="793.9" cy="285.7" r="3" fill="#e3b45a" opacity="0.75"/>
<circle cx="798.2" cy="285.7" r="3" fill="#e3b45a" opacity="0.75"/>
<circle cx="806.8" cy="285.7" r="3" fill="#e3b45a" opacity="0.75"/>
<circle cx="811.1" cy="285.7" r="3" fill="#e3b45a" opacity="0.75"/>
<circle cx="815.4" cy="285.7" r="3" fill="#e3b45a" opacity="0.75"/>
<circle cx="819.7" cy="285.7" r="3" fill="#e3b45a" opacity="0.75"/>
<circle cx="824.0" cy="285.7" r="3" fill="#e3b45a" opacity="0.75"/>
<circle cx="854.2" cy="285.7" r="3" fill="#e3b45a" opacity="0.75"/>
<circle cx="858.5" cy="285.7" r="3" fill="#e3b45a" opacity="0.75"/>
<circle cx="862.8" cy="285.7" r="3" fill="#e3b45a" opacity="0.75"/>
<circle cx="867.1" cy="285.7" r="5" fill="#ef5148" opacity="0.85"/>
<circle cx="871.4" cy="285.7" r="5" fill="#ef5148" opacity="0.85"/>
<circle cx="875.7" cy="285.7" r="5" fill="#ef5148" opacity="0.85"/>
<circle cx="880.0" cy="285.7" r="5" fill="#ef5148" opacity="0.85"/>
<circle cx="884.3" cy="285.7" r="5" fill="#ef5148" opacity="0.85"/>
<circle cx="888.6" cy="285.7" r="5" fill="#ef5148" opacity="0.85"/>
<circle cx="892.9" cy="285.7" r="3" fill="#e3b45a" opacity="0.75"/>
<circle cx="897.2" cy="285.7" r="3" fill="#e3b45a" opacity="0.75"/>
<circle cx="901.5" cy="285.7" r="3" fill="#e3b45a" opacity="0.75"/>
<circle cx="927.3" cy="285.7" r="3" fill="#e3b45a" opacity="0.75"/>
<circle cx="931.6" cy="285.7" r="3" fill="#e3b45a" opacity="0.75"/>
<circle cx="935.9" cy="285.7" r="5" fill="#ef5148" opacity="0.85"/>
<circle cx="940.2" cy="285.7" r="3" fill="#e3b45a" opacity="0.75"/>
<circle cx="944.5" cy="285.7" r="5" fill="#ef5148" opacity="0.85"/>
<circle cx="948.8" cy="285.7" r="3" fill="#e3b45a" opacity="0.75"/>
<circle cx="991.9" cy="285.7" r="3" fill="#e3b45a" opacity="0.75"/>
<circle cx="996.2" cy="285.7" r="3" fill="#e3b45a" opacity="0.75"/>
<circle cx="1000.5" cy="285.7" r="3" fill="#e3b45a" opacity="0.75"/>
<circle cx="1004.8" cy="285.7" r="3" fill="#e3b45a" opacity="0.75"/>
<circle cx="1009.1" cy="285.7" r="3" fill="#e3b45a" opacity="0.75"/>
<circle cx="1078.0" cy="285.7" r="3" fill="#e3b45a" opacity="0.75"/>
<circle cx="1082.3" cy="285.7" r="3" fill="#e3b45a" opacity="0.75"/>
<circle cx="1086.6" cy="285.7" r="3" fill="#e3b45a" opacity="0.75"/>
<circle cx="1090.8" cy="285.7" r="3" fill="#e3b45a" opacity="0.75"/>
<circle cx="1095.1" cy="285.7" r="3" fill="#e3b45a" opacity="0.75"/>
<circle cx="1099.4" cy="285.7" r="3" fill="#e3b45a" opacity="0.75"/>
<circle cx="1103.8" cy="285.7" r="3" fill="#e3b45a" opacity="0.75"/>
<circle cx="1108.0" cy="285.7" r="3" fill="#e3b45a" opacity="0.75"/>
<circle cx="1125.3" cy="285.7" r="3" fill="#e3b45a" opacity="0.75"/>
<circle cx="1129.6" cy="285.7" r="3" fill="#e3b45a" opacity="0.75"/>
<circle cx="1133.9" cy="285.7" r="3" fill="#e3b45a" opacity="0.75"/>
<circle cx="1138.2" cy="285.7" r="3" fill="#e3b45a" opacity="0.75"/>
<line x1="88" y1="377.7" x2="1164" y2="377.7" stroke="#1d2a25" stroke-width="1"/>
<text x="24" y="382.7" fill="#85918b" font-family="Segoe UI, sans-serif" font-size="14">The Girl遭遇</text>
<polyline points="91.3,380.9 95.4,380.9 99.5,380.9 103.6,380.9 107.7,380.9 111.8,380.9 115.9,380.9 120.0,380.9 124.1,380.9 128.2,383.0 132.3,383.0 136.4,383.0 140.5,387.3 144.6,387.3 149.7,391.6 152.8,393.7 157.9,393.7 162.0,391.6 166.1,391.6 170.2,391.6 174.3,395.8 178.4,398.0 182.5,398.0 186.6,398.0 190.7,398.0 194.8,398.0 198.9,395.8 203.0,395.8 207.1,398.0 211.2,398.0 215.2,398.0 219.3,398.0 223.4,393.7 227.5,393.7 231.6,393.7 235.7,393.7 239.8,395.8 243.9,398.0 248.0,398.0 253.2,398.0 257.3,400.1 261.4,400.1 265.5,400.1 269.6,400.1 273.7,402.2 277.7,402.2 281.9,402.2 287.0,400.1 290.0,400.1 294.1,400.1 298.2,400.1 302.3,400.1 306.4,400.1 310.5,400.1 314.6,400.1 318.7,400.1 322.8,400.1 326.9,402.2 331.0,402.2 335.1,402.2 339.2,402.2 344.3,402.2 348.4,402.2 352.5,400.1 356.6,400.1 360.7,400.1 364.8,395.8 368.9,395.8 373.0,395.8 377.1,391.6 381.2,391.6 385.3,391.6 389.4,391.6 393.5,391.6 397.6,393.7 401.7,391.6 405.8,391.6 409.9,393.7 414.0,393.7 418.1,395.8 422.2,398.0 426.3,398.0 430.4,400.1 434.5,400.1 439.6,402.2 443.7,402.2 447.8,402.2 451.9,400.1 456.0,402.2 460.1,402.2 464.2,400.1 468.3,400.1 472.4,400.1 476.5,395.8 480.6,393.7 484.7,393.7 488.8,389.4 492.9,385.2 497.0,385.2 501.1,383.0 505.2,383.0 509.3,380.9 513.4,380.9 517.5,380.9 521.6,380.9 525.7,380.9 530.8,385.2 534.9,385.2 541.1,387.3 543.1,391.6 547.2,391.6 551.3,393.7 555.4,393.7 559.5,393.7 563.6,395.8 567.7,393.7 571.8,393.7 575.9,393.7 580.0,393.7 584.1,393.7 588.2,395.8 592.3,395.8 596.4,395.8 600.5,395.8 604.6,398.0 608.7,400.1 612.8,400.1 616.9,404.4 621.0,404.4 626.1,404.4 630.2,404.4 634.3,404.4 638.4,402.2 642.5,402.2 646.6,402.2 650.7,402.2 654.8,402.2 658.9,402.2 663.0,400.1 667.1,400.1 671.2,398.0 675.3,400.1 679.4,400.1 683.5,398.0 687.6,398.0 691.7,400.1 695.8,395.8 699.9,393.7 704.0,393.7 708.1,391.6 712.2,385.2 716.3,378.7 721.4,378.7 725.5,372.3 729.6,370.2 733.7,368.1 737.8,368.1 741.9,368.1 748.0,368.1 750.1,368.1 754.2,374.5 758.3,380.9 762.4,380.9 766.5,385.2 770.6,385.2 774.7,389.4 778.8,391.6 782.9,391.6 787.0,393.7 791.1,393.7 795.2,393.7 799.3,393.7 803.4,391.6 807.4,391.6 812.6,389.4 816.7,389.4 820.8,389.4 824.9,389.4 829.0,387.3 833.1,383.0 837.2,383.0 841.3,378.7 845.4,380.9 849.5,380.9 853.6,380.9 857.7,378.7 861.8,376.6 865.8,376.6 869.9,376.6 874.0,376.6 878.1,376.6 882.2,378.7 886.3,378.7 890.4,378.7 894.5,378.7 898.6,380.9 902.7,378.7 907.9,378.7 912.0,380.9 916.1,380.9 920.2,380.9 924.3,383.0 928.4,380.9 932.4,380.9 936.5,378.7 940.6,374.5 944.7,374.5 948.9,374.5 952.9,374.5 957.0,370.2 961.1,365.9 965.2,363.8 969.3,363.8 973.4,363.8 977.5,363.8 981.6,363.8 985.7,363.8 989.8,363.8 993.9,365.9 999.0,365.9 1003.1,368.1 1007.2,370.2 1011.3,370.2 1015.4,370.2 1019.5,372.3 1023.6,372.3 1027.7,372.3 1031.8,372.3 1035.9,372.3 1040.0,370.2 1044.1,368.1 1048.2,368.1 1052.3,365.9 1056.4,363.8 1060.5,361.7 1064.6,359.5 1068.7,359.5 1072.8,359.5 1076.9,359.5 1081.0,357.4 1085.1,357.4 1089.2,359.5 1094.3,359.5 1098.4,361.7 1102.5,359.5 1106.6,359.5 1110.7,359.5 1114.8,357.4 1118.9,355.3 1123.0,355.3 1127.1,355.3 1131.2,353.1 1135.3,353.1 1139.4,351.0 1143.5,353.1 1147.6,353.1 1151.7,353.1 1155.8,355.3 1159.9,353.1 1164.0,355.3" fill="none" stroke="#ef5148" stroke-width="2.2" filter="url(#glow)"/>
<circle cx="144.6" cy="377.7" r="3" fill="#e3b45a" opacity="0.75"/>
<circle cx="149.7" cy="377.7" r="3" fill="#e3b45a" opacity="0.75"/>
<circle cx="152.8" cy="377.7" r="3" fill="#e3b45a" opacity="0.75"/>
<circle cx="157.9" cy="377.7" r="3" fill="#e3b45a" opacity="0.75"/>
<circle cx="162.0" cy="377.7" r="3" fill="#e3b45a" opacity="0.75"/>
<circle cx="166.1" cy="377.7" r="3" fill="#e3b45a" opacity="0.75"/>
<circle cx="170.2" cy="377.7" r="3" fill="#e3b45a" opacity="0.75"/>
<circle cx="174.3" cy="377.7" r="3" fill="#e3b45a" opacity="0.75"/>
<circle cx="716.3" cy="377.7" r="5" fill="#ef5148" opacity="0.85"/>
<circle cx="721.4" cy="377.7" r="5" fill="#ef5148" opacity="0.85"/>
<circle cx="725.5" cy="377.7" r="5" fill="#ef5148" opacity="0.85"/>
<circle cx="729.6" cy="377.7" r="5" fill="#ef5148" opacity="0.85"/>
<circle cx="916.1" cy="377.7" r="3" fill="#e3b45a" opacity="0.75"/>
<circle cx="920.2" cy="377.7" r="3" fill="#e3b45a" opacity="0.75"/>
<circle cx="924.3" cy="377.7" r="3" fill="#e3b45a" opacity="0.75"/>
<circle cx="928.4" cy="377.7" r="3" fill="#e3b45a" opacity="0.75"/>
<circle cx="932.4" cy="377.7" r="3" fill="#e3b45a" opacity="0.75"/>
<circle cx="936.5" cy="377.7" r="3" fill="#e3b45a" opacity="0.75"/>
<circle cx="940.6" cy="377.7" r="3" fill="#e3b45a" opacity="0.75"/>
<circle cx="944.7" cy="377.7" r="3" fill="#e3b45a" opacity="0.75"/>
<circle cx="948.9" cy="377.7" r="3" fill="#e3b45a" opacity="0.75"/>
<circle cx="952.9" cy="377.7" r="3" fill="#e3b45a" opacity="0.75"/>
<circle cx="957.0" cy="377.7" r="3" fill="#e3b45a" opacity="0.75"/>
<circle cx="961.1" cy="377.7" r="3" fill="#e3b45a" opacity="0.75"/>
<circle cx="965.2" cy="377.7" r="3" fill="#e3b45a" opacity="0.75"/>
<circle cx="969.3" cy="377.7" r="3" fill="#e3b45a" opacity="0.75"/>
<circle cx="973.4" cy="377.7" r="3" fill="#e3b45a" opacity="0.75"/>
<circle cx="977.5" cy="377.7" r="3" fill="#e3b45a" opacity="0.75"/>
<circle cx="981.6" cy="377.7" r="3" fill="#e3b45a" opacity="0.75"/>
<circle cx="985.7" cy="377.7" r="3" fill="#e3b45a" opacity="0.75"/>
<circle cx="989.8" cy="377.7" r="3" fill="#e3b45a" opacity="0.75"/>
<circle cx="993.9" cy="377.7" r="3" fill="#e3b45a" opacity="0.75"/>
<circle cx="999.0" cy="377.7" r="3" fill="#e3b45a" opacity="0.75"/>
<circle cx="1003.1" cy="377.7" r="3" fill="#e3b45a" opacity="0.75"/>
<circle cx="1007.2" cy="377.7" r="3" fill="#e3b45a" opacity="0.75"/>
<circle cx="1011.3" cy="377.7" r="3" fill="#e3b45a" opacity="0.75"/>
<circle cx="1015.4" cy="377.7" r="3" fill="#e3b45a" opacity="0.75"/>
<circle cx="1019.5" cy="377.7" r="3" fill="#e3b45a" opacity="0.75"/>
<circle cx="1023.6" cy="377.7" r="3" fill="#e3b45a" opacity="0.75"/>
<circle cx="1027.7" cy="377.7" r="3" fill="#e3b45a" opacity="0.75"/>
<circle cx="1031.8" cy="377.7" r="3" fill="#e3b45a" opacity="0.75"/>
<circle cx="1035.9" cy="377.7" r="3" fill="#e3b45a" opacity="0.75"/>
<circle cx="1040.0" cy="377.7" r="5" fill="#ef5148" opacity="0.85"/>
<circle cx="1044.1" cy="377.7" r="5" fill="#ef5148" opacity="0.85"/>
<circle cx="1048.2" cy="377.7" r="5" fill="#ef5148" opacity="0.85"/>
<circle cx="1052.3" cy="377.7" r="5" fill="#ef5148" opacity="0.85"/>
<circle cx="1056.4" cy="377.7" r="5" fill="#ef5148" opacity="0.85"/>
<circle cx="1060.5" cy="377.7" r="5" fill="#ef5148" opacity="0.85"/>
<circle cx="1064.6" cy="377.7" r="5" fill="#ef5148" opacity="0.85"/>
<circle cx="1068.7" cy="377.7" r="5" fill="#ef5148" opacity="0.85"/>
<circle cx="1072.8" cy="377.7" r="5" fill="#ef5148" opacity="0.85"/>
<circle cx="1076.9" cy="377.7" r="5" fill="#ef5148" opacity="0.85"/>
<circle cx="1081.0" cy="377.7" r="5" fill="#ef5148" opacity="0.85"/>
<circle cx="1085.1" cy="377.7" r="5" fill="#ef5148" opacity="0.85"/>
<circle cx="1089.2" cy="377.7" r="5" fill="#ef5148" opacity="0.85"/>
<circle cx="1094.3" cy="377.7" r="5" fill="#ef5148" opacity="0.85"/>
<circle cx="1098.4" cy="377.7" r="5" fill="#ef5148" opacity="0.85"/>
<circle cx="1102.5" cy="377.7" r="5" fill="#ef5148" opacity="0.85"/>
<circle cx="1106.6" cy="377.7" r="5" fill="#ef5148" opacity="0.85"/>
<circle cx="1110.7" cy="377.7" r="5" fill="#ef5148" opacity="0.85"/>
<circle cx="1114.8" cy="377.7" r="5" fill="#ef5148" opacity="0.85"/>
<circle cx="1118.9" cy="377.7" r="5" fill="#ef5148" opacity="0.85"/>
<circle cx="1123.0" cy="377.7" r="5" fill="#ef5148" opacity="0.85"/>
<circle cx="1127.1" cy="377.7" r="5" fill="#ef5148" opacity="0.85"/>
<circle cx="1131.2" cy="377.7" r="5" fill="#ef5148" opacity="0.85"/>
<circle cx="1135.3" cy="377.7" r="5" fill="#ef5148" opacity="0.85"/>
<circle cx="1139.4" cy="377.7" r="5" fill="#ef5148" opacity="0.85"/>
<circle cx="1143.5" cy="377.7" r="5" fill="#ef5148" opacity="0.85"/>
<circle cx="1147.6" cy="377.7" r="5" fill="#ef5148" opacity="0.85"/>
<circle cx="1151.7" cy="377.7" r="5" fill="#ef5148" opacity="0.85"/>
<circle cx="1155.8" cy="377.7" r="5" fill="#ef5148" opacity="0.85"/>
<circle cx="1159.9" cy="377.7" r="5" fill="#ef5148" opacity="0.85"/>
<circle cx="1164.0" cy="377.7" r="5" fill="#ef5148" opacity="0.85"/>
<line x1="88" y1="469.7" x2="1164" y2="469.7" stroke="#1d2a25" stroke-width="1"/>
<text x="24" y="474.7" fill="#85918b" font-family="Segoe UI, sans-serif" font-size="14">あくび</text>
<polyline points="90.6,481.1 94.7,481.1 98.8,488.7 102.9,488.7 107.0,488.7 111.1,484.9 115.2,484.9 119.3,481.1 124.4,484.9 128.5,484.9 132.6,484.9 136.7,484.9 140.8,484.9 144.9,481.1 149.0,481.1 153.1,481.1 157.2,481.1 161.3,484.9 165.4,484.9 169.5,484.9 173.6,484.9 177.7,484.9 181.8,481.1 185.9,477.3 190.0,477.3 194.1,477.3 198.2,477.3 202.3,477.3 206.4,477.3 210.5,469.7 214.6,469.7 219.7,469.7 223.8,469.7 227.9,469.7 232.0,465.9 236.1,465.9 240.2,465.9 244.3,462.1 248.4,458.2 252.5,458.2 256.6,462.1 260.7,462.1 264.8,465.9 268.9,462.1 273.0,462.1 277.1,465.9 281.2,465.9 285.2,465.9 289.3,473.5 293.4,473.5 297.5,477.3 301.6,477.3 305.7,477.3 310.9,477.3 314.9,477.3 319.0,477.3 323.1,477.3 327.2,477.3 331.3,477.3 335.4,473.5 339.5,473.5 343.6,473.5 347.7,473.5 351.8,473.5 355.9,473.5 360.0,469.7 364.1,469.7 368.2,469.7 372.3,462.1 376.4,462.1 380.5,458.2 384.6,450.6 388.7,450.6 392.8,450.6 396.9,450.6 402.0,450.6 406.1,454.4 410.2,454.4 414.3,458.2 418.4,462.1 422.5,462.1 426.6,469.7 430.7,473.5 434.8,473.5 438.9,477.3 443.0,477.3 447.1,473.5 451.2,469.7 455.3,465.9 459.4,465.9 463.5,465.9 467.6,465.9 471.6,465.9 475.7,458.2 480.9,450.6 483.9,450.6 488.0,450.6 492.1,450.6 497.3,450.6 501.3,454.4 505.4,454.4 509.5,458.2 513.6,462.1 517.7,462.1 521.8,469.7 525.9,473.5 530.0,473.5 534.1,477.3 538.2,477.3 542.3,481.1 546.4,477.3 550.5,477.3 554.6,477.3 558.7,481.1 562.8,481.1 567.9,477.3 571.0,477.3 575.1,477.3 579.2,473.5 583.3,473.5 588.4,469.7 592.5,469.7 596.6,469.7 600.7,469.7 604.8,469.7 608.9,469.7 613.0,469.7 617.1,469.7 621.2,469.7 625.3,473.5 629.4,473.5 633.5,477.3 637.6,477.3 641.7,477.3 645.8,469.7 649.9,465.9 656.0,465.9 658.0,462.1 662.1,465.9 666.2,465.9 670.3,465.9 674.4,465.9 678.5,462.1 682.6,462.1 687.8,462.1 691.8,469.7 695.9,473.5 700.0,473.5 704.1,473.5 708.2,469.7 712.3,469.7 716.4,465.9 720.5,465.9 724.6,465.9 728.7,465.9 733.8,465.9 736.9,462.1 741.0,462.1 745.1,462.1 749.2,462.1 753.3,462.1 757.4,462.1 761.5,462.1 765.6,458.2 769.7,454.4 773.8,454.4 778.9,450.6 783.0,454.4 787.1,454.4 791.2,454.4 795.3,454.4 799.4,454.4 803.5,458.2 807.6,458.2 811.7,462.1 815.8,469.7 819.9,469.7 824.0,473.5 828.1,473.5 832.2,473.5 836.3,477.3 840.4,477.3 844.5,477.3 848.6,473.5 852.6,473.5 856.7,477.3 860.8,477.3 867.0,473.5 869.0,477.3 874.2,477.3 878.3,477.3 882.4,477.3 886.4,477.3 890.5,481.1 894.6,481.1 898.7,484.9 902.8,484.9 906.9,488.7 911.0,492.5 915.1,492.5 919.2,492.5 923.3,492.5 927.4,488.7 931.5,488.7 936.6,492.5 939.7,496.4 943.8,496.4 947.9,492.5 952.0,492.5 956.1,492.5 960.2,488.7 965.3,488.7 969.4,484.9 974.5,481.1 977.6,481.1 981.7,469.7 985.8,465.9 989.9,465.9 994.0,465.9 998.1,462.1 1002.2,462.1 1006.3,458.2 1010.4,454.4 1014.5,454.4 1018.6,446.8 1022.7,450.6 1026.8,450.6 1030.9,450.6 1035.0,446.8 1039.1,443.0 1043.1,443.0 1047.2,443.0 1051.3,443.0 1055.4,443.0 1060.6,446.8 1064.7,446.8 1068.8,446.8 1072.8,446.8 1076.9,446.8 1081.0,446.8 1085.1,450.6 1089.2,450.6 1093.3,458.2 1097.4,458.2 1101.5,458.2 1105.6,458.2 1109.7,462.1 1113.8,462.1 1117.9,465.9 1122.0,469.7 1126.1,469.7 1130.2,465.9 1134.3,462.1 1138.4,462.1 1142.5,465.9 1146.6,465.9 1150.7,469.7 1155.8,477.3 1159.9,477.3 1164.0,477.3" fill="none" stroke="#c7f7d6" stroke-width="2.2" filter="url(#glow)"/>
<text x="88" y="532" fill="#85918b" font-family="Segoe UI, sans-serif" font-size="13">line = BPM, red dots = strong startle/tension candidates, amber dots = moderate candidates</text>
</svg>